<svg xmlns="http://www.w3.org/2000/svg" xmlns:xlink="http://www.w3.org/1999/xlink" width="500" zoomAndPan="magnify" viewBox="0 0 375 374.999991" height="500" preserveAspectRatio="xMidYMid meet" version="1.0"><defs><clipPath id="790731cb5f"><path d="M 160.214844 0 L 201.863281 0 L 201.863281 41.648438 L 160.214844 41.648438 Z M 160.214844 0 " clip-rule="nonzero"/></clipPath><clipPath id="e63d9ad4f9"><path d="M 181.039062 0 C 169.539062 0 160.214844 9.324219 160.214844 20.824219 C 160.214844 32.324219 169.539062 41.648438 181.039062 41.648438 C 192.539062 41.648438 201.863281 32.324219 201.863281 20.824219 C 201.863281 9.324219 192.539062 0 181.039062 0 Z M 181.039062 0 " clip-rule="nonzero"/></clipPath><clipPath id="b7dfd0e1f7"><path d="M 0.214844 0 L 41.863281 0 L 41.863281 41.648438 L 0.214844 41.648438 Z M 0.214844 0 " clip-rule="nonzero"/></clipPath><clipPath id="73722a4bad"><path d="M 21.039062 0 C 9.539062 0 0.214844 9.324219 0.214844 20.824219 C 0.214844 32.324219 9.539062 41.648438 21.039062 41.648438 C 32.539062 41.648438 41.863281 32.324219 41.863281 20.824219 C 41.863281 9.324219 32.539062 0 21.039062 0 Z M 21.039062 0 " clip-rule="nonzero"/></clipPath><clipPath id="14434833a6"><rect x="0" width="42" y="0" height="42"/></clipPath><clipPath id="868c0ccc6e"><path d="M 160.214844 0 L 201.851562 0 L 201.851562 41.636719 L 160.214844 41.636719 Z M 160.214844 0 " clip-rule="nonzero"/></clipPath><clipPath id="56802cd089"><path d="M 181.03125 0 C 169.535156 0 160.214844 9.320312 160.214844 20.816406 C 160.214844 32.316406 169.535156 41.636719 181.03125 41.636719 C 192.53125 41.636719 201.851562 32.316406 201.851562 20.816406 C 201.851562 9.320312 192.53125 0 181.03125 0 Z M 181.03125 0 " clip-rule="nonzero"/></clipPath><clipPath id="d3c783a9a5"><path d="M 306.546875 237.335938 L 312.21875 237.335938 L 312.21875 242.710938 L 306.546875 242.710938 Z M 306.546875 237.335938 " clip-rule="nonzero"/></clipPath><clipPath id="8f9ee234dc"><path d="M 309.234375 237.335938 L 309.523438 237.335938 C 310.234375 237.335938 310.917969 237.617188 311.421875 238.121094 C 311.925781 238.628906 312.210938 239.3125 312.210938 240.023438 C 312.210938 240.738281 311.925781 241.421875 311.421875 241.925781 C 310.917969 242.429688 310.234375 242.710938 309.523438 242.710938 L 309.234375 242.710938 C 308.519531 242.710938 307.835938 242.429688 307.332031 241.925781 C 306.828125 241.421875 306.546875 240.738281 306.546875 240.023438 C 306.546875 239.3125 306.828125 238.628906 307.332031 238.121094 C 307.835938 237.617188 308.519531 237.335938 309.234375 237.335938 Z M 309.234375 237.335938 " clip-rule="nonzero"/></clipPath><clipPath id="6e7472bf41"><path d="M 0.546875 0.335938 L 6.21875 0.335938 L 6.21875 5.710938 L 0.546875 5.710938 Z M 0.546875 0.335938 " clip-rule="nonzero"/></clipPath><clipPath id="ee34ec0ea8"><path d="M 3.234375 0.335938 L 3.523438 0.335938 C 4.234375 0.335938 4.917969 0.617188 5.421875 1.121094 C 5.925781 1.628906 6.210938 2.3125 6.210938 3.023438 C 6.210938 3.738281 5.925781 4.421875 5.421875 4.925781 C 4.917969 5.429688 4.234375 5.710938 3.523438 5.710938 L 3.234375 5.710938 C 2.519531 5.710938 1.835938 5.429688 1.332031 4.925781 C 0.828125 4.421875 0.546875 3.738281 0.546875 3.023438 C 0.546875 2.3125 0.828125 1.628906 1.332031 1.121094 C 1.835938 0.617188 2.519531 0.335938 3.234375 0.335938 Z M 3.234375 0.335938 " clip-rule="nonzero"/></clipPath><clipPath id="af2ab42588"><rect x="0" width="7" y="0" height="6"/></clipPath><clipPath id="ebe2e4bc9e"><path d="M 306.546875 237.335938 L 312.546875 237.335938 L 312.546875 242.585938 L 306.546875 242.585938 Z M 306.546875 237.335938 " clip-rule="nonzero"/></clipPath><clipPath id="7564d194b4"><path d="M 309.230469 237.335938 L 309.519531 237.335938 C 310.230469 237.335938 310.914062 237.617188 311.417969 238.121094 C 311.921875 238.625 312.203125 239.308594 312.203125 240.019531 C 312.203125 240.730469 311.921875 241.414062 311.417969 241.917969 C 310.914062 242.417969 310.230469 242.703125 309.519531 242.703125 L 309.230469 242.703125 C 308.519531 242.703125 307.835938 242.417969 307.335938 241.917969 C 306.832031 241.414062 306.546875 240.730469 306.546875 240.019531 C 306.546875 239.308594 306.832031 238.625 307.335938 238.121094 C 307.835938 237.617188 308.519531 237.335938 309.230469 237.335938 Z M 309.230469 237.335938 " clip-rule="nonzero"/></clipPath><clipPath id="9ca19135bc"><path d="M 287.457031 114.484375 L 329.101562 114.484375 L 329.101562 156.132812 L 287.457031 156.132812 Z M 287.457031 114.484375 " clip-rule="nonzero"/></clipPath><clipPath id="8436e694c5"><path d="M 308.277344 114.484375 C 296.777344 114.484375 287.457031 123.808594 287.457031 135.308594 C 287.457031 146.808594 296.777344 156.132812 308.277344 156.132812 C 319.78125 156.132812 329.101562 146.808594 329.101562 135.308594 C 329.101562 123.808594 319.78125 114.484375 308.277344 114.484375 Z M 308.277344 114.484375 " clip-rule="nonzero"/></clipPath><clipPath id="bb590c13b0"><path d="M 0.457031 0.484375 L 42.101562 0.484375 L 42.101562 42.132812 L 0.457031 42.132812 Z M 0.457031 0.484375 " clip-rule="nonzero"/></clipPath><clipPath id="f4727c1e12"><path d="M 21.277344 0.484375 C 9.777344 0.484375 0.457031 9.808594 0.457031 21.308594 C 0.457031 32.808594 9.777344 42.132812 21.277344 42.132812 C 32.78125 42.132812 42.101562 32.808594 42.101562 21.308594 C 42.101562 9.808594 32.78125 0.484375 21.277344 0.484375 Z M 21.277344 0.484375 " clip-rule="nonzero"/></clipPath><clipPath id="9eb8ee49cd"><rect x="0" width="43" y="0" height="43"/></clipPath><clipPath id="e6547a1391"><path d="M 287.457031 114.484375 L 329.09375 114.484375 L 329.09375 156.121094 L 287.457031 156.121094 Z M 287.457031 114.484375 " clip-rule="nonzero"/></clipPath><clipPath id="9cd3df3a87"><path d="M 308.273438 114.484375 C 296.777344 114.484375 287.457031 123.804688 287.457031 135.304688 C 287.457031 146.800781 296.777344 156.121094 308.273438 156.121094 C 319.773438 156.121094 329.09375 146.800781 329.09375 135.304688 C 329.09375 123.804688 319.773438 114.484375 308.273438 114.484375 Z M 308.273438 114.484375 " clip-rule="nonzero"/></clipPath><clipPath id="a13482220e"><path d="M 160.214844 333.351562 L 201.863281 333.351562 L 201.863281 375 L 160.214844 375 Z M 160.214844 333.351562 " clip-rule="nonzero"/></clipPath><clipPath id="188055ad0d"><path d="M 181.039062 333.351562 C 169.539062 333.351562 160.214844 342.675781 160.214844 354.175781 C 160.214844 365.675781 169.539062 375 181.039062 375 C 192.539062 375 201.863281 365.675781 201.863281 354.175781 C 201.863281 342.675781 192.539062 333.351562 181.039062 333.351562 Z M 181.039062 333.351562 " clip-rule="nonzero"/></clipPath><clipPath id="c0c434db5c"><path d="M 0.214844 0.351562 L 41.863281 0.351562 L 41.863281 42 L 0.214844 42 Z M 0.214844 0.351562 " clip-rule="nonzero"/></clipPath><clipPath id="0eafe160c3"><path d="M 21.039062 0.351562 C 9.539062 0.351562 0.214844 9.675781 0.214844 21.175781 C 0.214844 32.675781 9.539062 42 21.039062 42 C 32.539062 42 41.863281 32.675781 41.863281 21.175781 C 41.863281 9.675781 32.539062 0.351562 21.039062 0.351562 Z M 21.039062 0.351562 " clip-rule="nonzero"/></clipPath><clipPath id="fc04451ecb"><rect x="0" width="42" y="0" height="42"/></clipPath><clipPath id="850bc908d1"><path d="M 160.214844 333.351562 L 201.851562 333.351562 L 201.851562 374.988281 L 160.214844 374.988281 Z M 160.214844 333.351562 " clip-rule="nonzero"/></clipPath><clipPath id="5e87d66fe3"><path d="M 181.03125 333.351562 C 169.535156 333.351562 160.214844 342.671875 160.214844 354.171875 C 160.214844 365.667969 169.535156 374.988281 181.03125 374.988281 C 192.53125 374.988281 201.851562 365.667969 201.851562 354.171875 C 201.851562 342.671875 192.53125 333.351562 181.03125 333.351562 Z M 181.03125 333.351562 " clip-rule="nonzero"/></clipPath></defs><path stroke-linecap="butt" transform="matrix(0.00373473, 0.749991, -0.749991, 0.00373473, 63.551441, 129.978947)" fill="none" stroke-linejoin="miter" d="M 0.00182155 10.501019 L 151.665163 10.501039 " stroke="#ffffff" stroke-width="21" stroke-opacity="1" stroke-miterlimit="4"/><g clip-path="url(#790731cb5f)"><g clip-path="url(#e63d9ad4f9)"><g transform="matrix(1, 0, 0, 1, 160, 0)"><g clip-path="url(#14434833a6)"><g clip-path="url(#b7dfd0e1f7)"><g clip-path="url(#73722a4bad)"><path fill="#ffffff" d="M 0.214844 0 L 41.863281 0 L 41.863281 41.648438 L 0.214844 41.648438 Z M 0.214844 0 " fill-opacity="1" fill-rule="nonzero"/></g></g></g></g></g></g><g clip-path="url(#868c0ccc6e)"><g clip-path="url(#56802cd089)"><path stroke-linecap="butt" transform="matrix(0.75, 0, 0, 0.75, 160.214773, 0)" fill="none" stroke-linejoin="miter" d="M 27.755304 0 C 12.427178 0 0.0000940944 12.427084 0.0000940944 27.75521 C 0.0000940944 43.088544 12.427178 55.515629 27.755304 55.515629 C 43.088639 55.515629 55.515723 43.088544 55.515723 27.75521 C 55.515723 12.427084 43.088639 0 27.755304 0 Z M 27.755304 0 " stroke="#ffffff" stroke-width="32" stroke-opacity="1" stroke-miterlimit="4"/></g></g><path stroke-linecap="butt" transform="matrix(0.550476, 0.509388, -0.509388, 0.550476, 59.406639, 232.976498)" fill="none" stroke-linejoin="miter" d="M 0.00171294 10.500811 L 220.884234 10.502073 " stroke="#ffffff" stroke-width="21" stroke-opacity="1" stroke-miterlimit="4"/><path stroke-linecap="butt" transform="matrix(0.532885, 0.527763, -0.527763, 0.532885, 193.040529, 10.677378)" fill="none" stroke-linejoin="miter" d="M 0.00165471 10.499807 L 209.3519 10.501589 " stroke="#ffffff" stroke-width="21" stroke-opacity="1" stroke-miterlimit="4"/><path stroke-linecap="butt" transform="matrix(-0.53033, 0.53033, -0.53033, -0.53033, 181.212869, 19.2883)" fill="none" stroke-linejoin="miter" d="M -0.00114286 10.500901 L 229.274562 10.497218 " stroke="#ffffff" stroke-width="21" stroke-opacity="1" stroke-miterlimit="4"/><path stroke-linecap="butt" transform="matrix(-0.542151, 0.51824, -0.51824, -0.542151, 317.508586, 242.589651)" fill="none" stroke-linejoin="miter" d="M 0.00304591 13.000554 L 226.846834 13.002154 " stroke="#ffffff" stroke-width="26" stroke-opacity="1" stroke-miterlimit="4"/><path stroke-linecap="butt" transform="matrix(0, 0.75, -0.75, 0, 188.908689, 24.581393)" fill="none" stroke-linejoin="miter" d="M 0.000850859 10.498044 L 435.589421 10.498044 " stroke="#ffffff" stroke-width="21" stroke-opacity="1" stroke-miterlimit="4"/><path stroke-linecap="butt" transform="matrix(0, 0.75, -0.75, 0, 317.250365, 141.612324)" fill="none" stroke-linejoin="miter" d="M 0.00127593 10.500488 L 134.803368 10.500488 " stroke="#ffffff" stroke-width="21" stroke-opacity="1" stroke-miterlimit="4"/><path stroke-linecap="butt" transform="matrix(0.75, 0, 0, 0.75, 55.680154, 125.270221)" fill="none" stroke-linejoin="miter" d="M -0.000622592 10.499081 L 324.452524 10.499081 " stroke="#ffffff" stroke-width="21" stroke-opacity="1" stroke-miterlimit="4"/><path stroke-linecap="butt" transform="matrix(0.75, 0.000000000000000064, -0.000000000000000064, 0.75, 57.755149, 161.195351)" fill="none" stroke-linejoin="miter" d="M -0.00165661 10.499949 L 334.029615 10.499949 " stroke="#ffffff" stroke-width="21" stroke-opacity="1" stroke-miterlimit="4"/><path stroke-linecap="butt" transform="matrix(0.75, 0, 0, 0.75, 57.755149, 197.120466)" fill="none" stroke-linejoin="miter" d="M -0.00165661 10.500837 L 334.029615 10.500837 " stroke="#ffffff" stroke-width="21" stroke-opacity="1" stroke-miterlimit="4"/><path stroke-linecap="butt" transform="matrix(0.75, 0, 0, 0.75, 55.680154, 233.567901)" fill="none" stroke-linejoin="miter" d="M -0.000622592 10.498008 L 336.796275 10.498008 " stroke="#ffffff" stroke-width="21" stroke-opacity="1" stroke-miterlimit="4"/><g clip-path="url(#d3c783a9a5)"><g clip-path="url(#8f9ee234dc)"><g transform="matrix(1, 0, 0, 1, 306, 237)"><g clip-path="url(#af2ab42588)"><g clip-path="url(#6e7472bf41)"><g clip-path="url(#ee34ec0ea8)"><path fill="#357872" d="M 0.546875 0.335938 L 6.21875 0.335938 L 6.21875 5.710938 L 0.546875 5.710938 Z M 0.546875 0.335938 " fill-opacity="1" fill-rule="nonzero"/></g></g></g></g></g></g><g clip-path="url(#ebe2e4bc9e)"><g clip-path="url(#7564d194b4)"><path stroke-linecap="butt" transform="matrix(0.75, 0, 0, 0.75, 306.548598, 237.335317)" fill="none" stroke-linejoin="miter" d="M 3.575828 0.000827047 L 3.961245 0.000827047 C 4.909161 0.000827047 5.82062 0.375827 6.492495 1.047702 C 7.16437 1.719577 7.53937 2.631036 7.53937 3.578952 C 7.53937 4.526869 7.16437 5.438327 6.492495 6.110202 C 5.82062 6.776869 4.909161 7.157078 3.961245 7.157078 L 3.575828 7.157078 C 2.627911 7.157078 1.716453 6.776869 1.049786 6.110202 C 0.377911 5.438327 -0.00229729 4.526869 -0.00229729 3.578952 C -0.00229729 2.631036 0.377911 1.719577 1.049786 1.047702 C 1.716453 0.375827 2.627911 0.000827047 3.575828 0.000827047 Z M 3.575828 0.000827047 " stroke="#ffffff" stroke-width="32" stroke-opacity="1" stroke-miterlimit="4"/></g></g><g clip-path="url(#9ca19135bc)"><g clip-path="url(#8436e694c5)"><g transform="matrix(1, 0, 0, 1, 287, 114)"><g clip-path="url(#9eb8ee49cd)"><g clip-path="url(#bb590c13b0)"><g clip-path="url(#f4727c1e12)"><path fill="#ffffff" d="M 0.457031 0.484375 L 42.101562 0.484375 L 42.101562 42.132812 L 0.457031 42.132812 Z M 0.457031 0.484375 " fill-opacity="1" fill-rule="nonzero"/></g></g></g></g></g></g><g clip-path="url(#e6547a1391)"><g clip-path="url(#9cd3df3a87)"><path stroke-linecap="butt" transform="matrix(0.75, 0, 0, 0.75, 287.455502, 114.484855)" fill="none" stroke-linejoin="miter" d="M 27.757249 -0.000639843 C 12.429123 -0.000639843 0.00203844 12.426444 0.00203844 27.759779 C 0.00203844 43.087905 12.429123 55.514989 27.757249 55.514989 C 43.090583 55.514989 55.517667 43.087905 55.517667 27.759779 C 55.517667 12.426444 43.090583 -0.000639843 27.757249 -0.000639843 Z M 27.757249 -0.000639843 " stroke="#ffffff" stroke-width="32" stroke-opacity="1" stroke-miterlimit="4"/></g></g><g clip-path="url(#a13482220e)"><g clip-path="url(#188055ad0d)"><g transform="matrix(1, 0, 0, 1, 160, 333)"><g clip-path="url(#fc04451ecb)"><g clip-path="url(#c0c434db5c)"><g clip-path="url(#0eafe160c3)"><path fill="#ffffff" d="M 0.214844 0.351562 L 41.863281 0.351562 L 41.863281 42 L 0.214844 42 Z M 0.214844 0.351562 " fill-opacity="1" fill-rule="nonzero"/></g></g></g></g></g></g><g clip-path="url(#850bc908d1)"><g clip-path="url(#5e87d66fe3)"><path stroke-linecap="butt" transform="matrix(0.75, 0, 0, 0.75, 160.214773, 333.352421)" fill="none" stroke-linejoin="miter" d="M 27.755304 -0.00114401 C 12.427178 -0.00114401 0.0000940944 12.42594 0.0000940944 27.759274 C 0.0000940944 43.0874 12.427178 55.514485 27.755304 55.514485 C 43.088639 55.514485 55.515723 43.0874 55.515723 27.759274 C 55.515723 12.42594 43.088639 -0.00114401 27.755304 -0.00114401 Z M 27.755304 -0.00114401 " stroke="#ffffff" stroke-width="32" stroke-opacity="1" stroke-miterlimit="4"/></g></g></svg>