<svg xmlns="http://www.w3.org/2000/svg" xmlns:xlink="http://www.w3.org/1999/xlink" width="500" zoomAndPan="magnify" viewBox="0 0 375 374.999991" height="500" preserveAspectRatio="xMidYMid meet" version="1.0"><defs><clipPath id="41876bb9f2"><path d="M 190.011719 296.855469 L 212.75 296.855469 L 212.75 319.59375 L 190.011719 319.59375 Z M 190.011719 296.855469 " clip-rule="nonzero"/></clipPath><clipPath id="90f8fc8d0e"><path d="M 201.382812 296.855469 C 195.101562 296.855469 190.011719 301.945312 190.011719 308.226562 C 190.011719 314.503906 195.101562 319.59375 201.382812 319.59375 C 207.660156 319.59375 212.75 314.503906 212.75 308.226562 C 212.75 301.945312 207.660156 296.855469 201.382812 296.855469 Z M 201.382812 296.855469 " clip-rule="nonzero"/></clipPath><clipPath id="5690ebac91"><path d="M 0.0117188 0.855469 L 22.75 0.855469 L 22.75 23.59375 L 0.0117188 23.59375 Z M 0.0117188 0.855469 " clip-rule="nonzero"/></clipPath><clipPath id="69fce0d3c3"><path d="M 11.382812 0.855469 C 5.101562 0.855469 0.0117188 5.945312 0.0117188 12.226562 C 0.0117188 18.503906 5.101562 23.59375 11.382812 23.59375 C 17.660156 23.59375 22.75 18.503906 22.75 12.226562 C 22.75 5.945312 17.660156 0.855469 11.382812 0.855469 Z M 11.382812 0.855469 " clip-rule="nonzero"/></clipPath><clipPath id="d4cf4555ac"><rect x="0" width="23" y="0" height="24"/></clipPath><clipPath id="5b5fc98f45"><path d="M 190.273438 32.328125 L 213.011719 32.328125 L 213.011719 55.0625 L 190.273438 55.0625 Z M 190.273438 32.328125 " clip-rule="nonzero"/></clipPath><clipPath id="c9e93b1ed0"><path d="M 201.640625 32.328125 C 195.363281 32.328125 190.273438 37.417969 190.273438 43.695312 C 190.273438 49.972656 195.363281 55.0625 201.640625 55.0625 C 207.921875 55.0625 213.011719 49.972656 213.011719 43.695312 C 213.011719 37.417969 207.921875 32.328125 201.640625 32.328125 Z M 201.640625 32.328125 " clip-rule="nonzero"/></clipPath><clipPath id="92f3a07a7a"><path d="M 0.273438 0.328125 L 23.011719 0.328125 L 23.011719 23.0625 L 0.273438 23.0625 Z M 0.273438 0.328125 " clip-rule="nonzero"/></clipPath><clipPath id="8ca5c8ed8f"><path d="M 11.640625 0.328125 C 5.363281 0.328125 0.273438 5.417969 0.273438 11.695312 C 0.273438 17.972656 5.363281 23.0625 11.640625 23.0625 C 17.921875 23.0625 23.011719 17.972656 23.011719 11.695312 C 23.011719 5.417969 17.921875 0.328125 11.640625 0.328125 Z M 11.640625 0.328125 " clip-rule="nonzero"/></clipPath><clipPath id="c18bf927d2"><rect x="0" width="24" y="0" height="24"/></clipPath><clipPath id="60ae39b3e1"><path d="M 288.558594 124.277344 L 311.296875 124.277344 L 311.296875 147.015625 L 288.558594 147.015625 Z M 288.558594 124.277344 " clip-rule="nonzero"/></clipPath><clipPath id="1f322fc19e"><path d="M 299.929688 124.277344 C 293.648438 124.277344 288.558594 129.367188 288.558594 135.644531 C 288.558594 141.925781 293.648438 147.015625 299.929688 147.015625 C 306.207031 147.015625 311.296875 141.925781 311.296875 135.644531 C 311.296875 129.367188 306.207031 124.277344 299.929688 124.277344 Z M 299.929688 124.277344 " clip-rule="nonzero"/></clipPath><clipPath id="c770190782"><path d="M 0.558594 0.277344 L 23.296875 0.277344 L 23.296875 23.015625 L 0.558594 23.015625 Z M 0.558594 0.277344 " clip-rule="nonzero"/></clipPath><clipPath id="f858646898"><path d="M 11.929688 0.277344 C 5.648438 0.277344 0.558594 5.367188 0.558594 11.644531 C 0.558594 17.925781 5.648438 23.015625 11.929688 23.015625 C 18.207031 23.015625 23.296875 17.925781 23.296875 11.644531 C 23.296875 5.367188 18.207031 0.277344 11.929688 0.277344 Z M 11.929688 0.277344 " clip-rule="nonzero"/></clipPath><clipPath id="249563d7f6"><rect x="0" width="24" y="0" height="24"/></clipPath><clipPath id="cb59edec55"><path d="M 297.480469 215.550781 L 301.859375 215.550781 L 301.859375 219.703125 L 297.480469 219.703125 Z M 297.480469 215.550781 " clip-rule="nonzero"/></clipPath><clipPath id="0083644e51"><path d="M 299.554688 215.550781 L 299.777344 215.550781 C 300.328125 215.550781 300.855469 215.769531 301.246094 216.160156 C 301.636719 216.550781 301.855469 217.078125 301.855469 217.628906 C 301.855469 218.179688 301.636719 218.707031 301.246094 219.097656 C 300.855469 219.484375 300.328125 219.703125 299.777344 219.703125 L 299.554688 219.703125 C 299.003906 219.703125 298.476562 219.484375 298.085938 219.097656 C 297.699219 218.707031 297.480469 218.179688 297.480469 217.628906 C 297.480469 217.078125 297.699219 216.550781 298.085938 216.160156 C 298.476562 215.769531 299.003906 215.550781 299.554688 215.550781 Z M 299.554688 215.550781 " clip-rule="nonzero"/></clipPath><clipPath id="846320493d"><path d="M 0.480469 0.550781 L 4.859375 0.550781 L 4.859375 4.703125 L 0.480469 4.703125 Z M 0.480469 0.550781 " clip-rule="nonzero"/></clipPath><clipPath id="33885e297c"><path d="M 2.554688 0.550781 L 2.777344 0.550781 C 3.328125 0.550781 3.855469 0.769531 4.246094 1.160156 C 4.636719 1.550781 4.855469 2.078125 4.855469 2.628906 C 4.855469 3.179688 4.636719 3.707031 4.246094 4.097656 C 3.855469 4.484375 3.328125 4.703125 2.777344 4.703125 L 2.554688 4.703125 C 2.003906 4.703125 1.476562 4.484375 1.085938 4.097656 C 0.699219 3.707031 0.480469 3.179688 0.480469 2.628906 C 0.480469 2.078125 0.699219 1.550781 1.085938 1.160156 C 1.476562 0.769531 2.003906 0.550781 2.554688 0.550781 Z M 2.554688 0.550781 " clip-rule="nonzero"/></clipPath><clipPath id="cf6a6212b4"><rect x="0" width="5" y="0" height="5"/></clipPath></defs><path stroke-linecap="round" transform="matrix(0.000272672, 0.75, -0.75, 0.000272672, 107.460583, 132.178995)" fill="none" stroke-linejoin="miter" d="M 2.999832 3.000618 L 113.327972 2.999063 " stroke="#ffffff" stroke-width="6" stroke-opacity="1" stroke-miterlimit="4"/><g clip-path="url(#41876bb9f2)"><g clip-path="url(#90f8fc8d0e)"><g transform="matrix(1, 0, 0, 1, 190, 296)"><g clip-path="url(#d4cf4555ac)"><g clip-path="url(#5690ebac91)"><g clip-path="url(#69fce0d3c3)"><path fill="#ffffff" d="M 0.0117188 0.855469 L 22.75 0.855469 L 22.75 23.59375 L 0.0117188 23.59375 Z M 0.0117188 0.855469 " fill-opacity="1" fill-rule="nonzero"/></g></g></g></g></g></g><g clip-path="url(#5b5fc98f45)"><g clip-path="url(#c9e93b1ed0)"><g transform="matrix(1, 0, 0, 1, 190, 32)"><g clip-path="url(#c18bf927d2)"><g clip-path="url(#92f3a07a7a)"><g clip-path="url(#8ca5c8ed8f)"><path fill="#ffffff" d="M 0.273438 0.328125 L 23.011719 0.328125 L 23.011719 23.0625 L 0.273438 23.0625 Z M 0.273438 0.328125 " fill-opacity="1" fill-rule="nonzero"/></g></g></g></g></g></g><path stroke-linecap="round" transform="matrix(0.530383, 0.530278, -0.530278, 0.530383, 106.40088, 216.0381)" fill="none" stroke-linejoin="miter" d="M 2.999829 2.997662 L 164.846269 2.998942 " stroke="#ffffff" stroke-width="6" stroke-opacity="1" stroke-miterlimit="4"/><path stroke-linecap="butt" transform="matrix(0.53033, 0.53033, -0.53033, 0.53033, 212.498676, 45.55391)" fill="none" stroke-linejoin="miter" d="M -0.00170149 3.001006 L 154.427483 3.001006 " stroke="#ffffff" stroke-width="6" stroke-opacity="1" stroke-miterlimit="4"/><path stroke-linecap="round" transform="matrix(-0.531357, 0.529301, -0.529301, -0.531357, 195.31804, 47.41336)" fill="none" stroke-linejoin="miter" d="M 2.998496 3.000276 L 166.712453 3.003374 " stroke="#ffffff" stroke-width="6" stroke-opacity="1" stroke-miterlimit="4"/><path stroke-linecap="round" transform="matrix(-0.528979, 0.531677, -0.531677, -0.528979, 301.520435, 219.216211)" fill="none" stroke-linejoin="miter" d="M 2.997144 3.000248 L 165.286043 3.000599 " stroke="#ffffff" stroke-width="6" stroke-opacity="1" stroke-miterlimit="4"/><path stroke-linecap="butt" transform="matrix(0, 0.75, -0.75, 0, 203.886788, 50.117428)" fill="none" stroke-linejoin="miter" d="M -0.000320545 3.000092 L 336.468452 3.000092 " stroke="#ffffff" stroke-width="6" stroke-opacity="1" stroke-miterlimit="4"/><path stroke-linecap="butt" transform="matrix(0.000000001309, 0.75, -0.75, 0.000000001309, 301.911049, 141.614684)" fill="none" stroke-linejoin="miter" d="M -0.00186967 3.001191 L 101.357512 3.001191 " stroke="#ffffff" stroke-width="6" stroke-opacity="1" stroke-miterlimit="4"/><path stroke-linecap="butt" transform="matrix(0.75, 0, 0, 0.75, 104.810506, 131.724659)" fill="none" stroke-linejoin="miter" d="M -0.00254916 3.002539 L 250.622467 3.002539 " stroke="#ffffff" stroke-width="6" stroke-opacity="1" stroke-miterlimit="4"/><path stroke-linecap="butt" transform="matrix(0.75, 0.000000000000000083, -0.000000000000000083, 0.75, 106.413322, 159.474657)" fill="none" stroke-linejoin="miter" d="M 0.000987984 3.002541 L 258.021838 3.002541 " stroke="#ffffff" stroke-width="6" stroke-opacity="1" stroke-miterlimit="4"/><path stroke-linecap="butt" transform="matrix(0.75, 0.000000000000000083, -0.000000000000000083, 0.75, 106.413322, 187.224655)" fill="none" stroke-linejoin="miter" d="M 0.000987984 3.002544 L 258.021838 3.002544 " stroke="#ffffff" stroke-width="6" stroke-opacity="1" stroke-miterlimit="4"/><path stroke-linecap="butt" transform="matrix(0.75, 0, 0, 0.75, 104.810506, 215.378115)" fill="none" stroke-linejoin="miter" d="M -0.00254916 3.001056 L 260.158926 3.001056 " stroke="#ffffff" stroke-width="6" stroke-opacity="1" stroke-miterlimit="4"/><g clip-path="url(#60ae39b3e1)"><g clip-path="url(#1f322fc19e)"><g transform="matrix(1, 0, 0, 1, 288, 124)"><g clip-path="url(#249563d7f6)"><g clip-path="url(#c770190782)"><g clip-path="url(#f858646898)"><path fill="#ffffff" d="M 0.558594 0.277344 L 23.296875 0.277344 L 23.296875 23.015625 L 0.558594 23.015625 Z M 0.558594 0.277344 " fill-opacity="1" fill-rule="nonzero"/></g></g></g></g></g></g><g clip-path="url(#cb59edec55)"><g clip-path="url(#0083644e51)"><g transform="matrix(1, 0, 0, 1, 297, 215)"><g clip-path="url(#cf6a6212b4)"><g clip-path="url(#846320493d)"><g clip-path="url(#33885e297c)"><path fill="#ffffff" d="M 0.480469 0.550781 L 4.859375 0.550781 L 4.859375 4.703125 L 0.480469 4.703125 Z M 0.480469 0.550781 " fill-opacity="1" fill-rule="nonzero"/></g></g></g></g></g></g></svg>